<svg width="14" height="14" viewBox="0 0 14 14" fill="none" xmlns="http://www.w3.org/2000/svg">
<path d="M6.99579 3.11112C7.23179 3.11112 7.44531 3.20001 7.63636 3.37778L13.7556 9.38183C13.8286 9.45725 13.8876 9.54075 13.9326 9.63233C13.9775 9.7293 14 9.83435 14 9.94748C14 10.0983 13.9635 10.233 13.8904 10.3515C13.8174 10.4754 13.719 10.5724 13.5954 10.6424C13.4662 10.7125 13.3229 10.7475 13.1656 10.7475C12.9352 10.7475 12.7357 10.6694 12.5671 10.5131L6.59121 4.64647H7.40879L1.4413 10.5131C1.26149 10.6694 1.0592 10.7475 0.834438 10.7475C0.677103 10.7475 0.536625 10.7125 0.413004 10.6424C0.283765 10.5724 0.182621 10.4754 0.109573 10.3515C0.0365244 10.233 1.3187e-08 10.0983 0 9.94748C-1.88386e-08 9.732 0.0814774 9.54344 0.244431 9.38183L6.37206 3.38587C6.45635 3.29428 6.55188 3.22425 6.65864 3.17577C6.7654 3.13267 6.87778 3.11112 6.99579 3.11112Z" fill="#12101C"/>
</svg>
